<svg xmlns="http://www.w3.org/2000/svg" xml:space="preserve" id="social-network" x="0" y="0" enable-background="new 0 0 512 512" version="1.1" viewBox="0 0 512 512">
  <path fill="#ffe177" fill-rule="evenodd" d="M202.975,56.188c4.297-1.001,8.593,1.671,9.594,5.969s-1.671,8.593-5.969,9.594
		c-47.749,11.263-89.323,38.491-118.769,75.732c-28.838,36.472-46.053,82.591-46.053,132.768c0,3.062,0.04,5.621,0.116,7.71
		c0.082,2.26,0.226,4.814,0.426,7.639c0.31,4.401-3.006,8.221-7.406,8.531s-8.221-3.005-8.531-7.406
		c-0.172-2.431-0.315-5.158-0.426-8.201c-0.117-3.214-0.178-5.983-0.178-8.273c0-53.845,18.524-103.398,49.553-142.642
		C106.995,97.56,151.676,68.289,202.975,56.188L202.975,56.188z M88.531,438.182c-3.02-3.21-2.866-8.261,0.344-11.281
		c3.21-3.02,8.261-2.866,11.281,0.344c19.888,21.081,44.024,38.133,71.05,49.796c25.993,11.216,54.661,17.432,84.794,17.432
		c21.941,0,43.058-3.274,62.89-9.356c20.607-6.32,39.873-15.647,57.284-27.465c3.641-2.468,8.595-1.517,11.062,2.125
		c2.468,3.641,1.517,8.595-2.125,11.062c-18.746,12.724-39.443,22.752-61.534,29.527c-21.422,6.57-44.117,10.106-67.577,10.106
		c-32.353,0-63.156-6.683-91.106-18.744C135.876,479.206,109.934,460.869,88.531,438.182L88.531,438.182z M476.582,346.317
		c-1.26,4.228-5.709,6.634-9.937,5.375c-4.228-1.26-6.634-5.709-5.375-9.937c2.949-9.855,5.206-19.984,6.714-30.327
		c1.475-10.121,2.239-20.53,2.239-31.178c0-41.739-11.895-80.647-32.471-113.517c-21.279-33.992-51.851-61.592-88.167-79.251
		c-3.969-1.916-5.634-6.687-3.719-10.656c1.916-3.969,6.687-5.635,10.656-3.719c38.996,18.963,71.844,48.63,94.729,85.188
		c22.161,35.401,34.971,77.208,34.971,121.955c0,11.296-0.828,22.459-2.427,33.428C482.165,324.862,479.741,335.762,476.582,346.317
		z" clip-rule="evenodd"></path>
  <circle cx="448.45" cy="391.361" r="56.5" fill="#8ac9fe" fill-rule="evenodd" clip-rule="evenodd" transform="rotate(-45.001 448.447 391.368)"></circle>
  <path fill="#60b7ff" fill-rule="evenodd" d="M448.45,334.861c31.204,0,56.5,25.296,56.5,56.5c0,31.204-25.296,56.5-56.5,56.5
			c-1.685,0-3.353-0.078-5-0.223c28.862-2.532,51.5-26.758,51.5-56.277c0-29.519-22.638-53.746-51.5-56.277
			C445.097,334.94,446.764,334.861,448.45,334.861z" clip-rule="evenodd"></path>
  <circle cx="63.55" cy="391.361" r="56.5" fill="#fe646f" fill-rule="evenodd" clip-rule="evenodd" transform="rotate(-45.001 63.546 391.364)"></circle>
  <path fill="#fd4755" fill-rule="evenodd" d="M63.55,334.861c31.204,0,56.5,25.296,56.5,56.5c0,31.204-25.296,56.5-56.5,56.5
			c-1.686,0-3.353-0.078-5-0.223c28.862-2.532,51.5-26.758,51.5-56.277c0-29.519-22.638-53.746-51.5-56.277
			C60.197,334.94,61.864,334.861,63.55,334.861z" clip-rule="evenodd"></path>
  <g>
    <circle cx="256" cy="58.028" r="56.5" fill="#6cf5c2" fill-rule="evenodd" clip-rule="evenodd" transform="rotate(-16.843 255.99 58.016)"></circle>
    <path fill="#00e499" fill-rule="evenodd" d="M256,1.528c31.204,0,56.5,25.296,56.5,56.5c0,31.204-25.296,56.5-56.5,56.5c-1.686,0-3.353-0.078-5-0.223
			c28.862-2.532,51.5-26.759,51.5-56.277c0-29.519-22.638-53.745-51.5-56.277C252.647,1.606,254.314,1.528,256,1.528z" clip-rule="evenodd"></path>
  </g>
  <g>
    <circle cx="256" cy="280.25" r="112.5" fill="#837683" fill-rule="evenodd" clip-rule="evenodd"></circle>
    <path fill="#685e68" fill-rule="evenodd" d="M348.499,280.25c0,23.013-6.91,44.412-18.768,62.236c-4.576,6.879-9.89,13.225-15.827,18.926
			c-17.962,17.246-41.638,28.587-67.905,30.9c3.295,0.29,6.631,0.439,10.001,0.439c5.466,0,10.842-0.39,16.1-1.143
			c0.679-0.097,1.355-0.201,2.03-0.31c53.512-8.67,94.371-55.087,94.371-111.047c0-62.132-50.368-112.5-112.5-112.5
			c-3.37,0-6.706,0.148-10,0.438C303.447,173.248,348.499,221.488,348.499,280.25z" clip-rule="evenodd"></path>
    <path fill="#8ac9fe" fill-rule="evenodd" d="M256,291.099c-40.525,0-73.889,30.707-78.115,70.11c20.235,19.528,47.772,31.54,78.114,31.54
			c5.466,0,10.842-0.39,16.1-1.143c23.926-3.43,45.42-14.39,62.01-30.4C329.89,321.795,296.531,291.099,256,291.099z" clip-rule="evenodd"></path>
    <path fill="#60b7ff" fill-rule="evenodd" d="M246.001,291.73c46.764,5.943,65.61,41.327,69.942,83.732c6.541-4.127,12.627-8.91,18.165-14.256
			c-4.218-39.412-37.577-70.107-78.109-70.107C252.613,291.099,249.276,291.314,246.001,291.73z" clip-rule="evenodd"></path>
    <circle cx="256.001" cy="245.439" r="39.721" fill="#f6dccd" fill-rule="evenodd" clip-rule="evenodd"></circle>
    <path fill="#f1cbbc" fill-rule="evenodd" d="M285.721,245.439c0,20.244-15.144,36.95-34.721,39.409c1.638,0.206,3.307,0.312,5,0.312
			c21.937,0,39.721-17.784,39.721-39.721c0-21.937-17.784-39.721-39.721-39.721c-1.693,0-3.362,0.106-5,0.312
			C270.577,208.489,285.721,225.196,285.721,245.439z" clip-rule="evenodd"></path>
  </g>
</svg>
